<svg xmlns="http://www.w3.org/2000/svg" viewBox="0 0 1480 900" font-family="-apple-system,BlinkMacSystemFont,'Segoe UI',Helvetica,Arial,sans-serif" role="img" aria-label="Analytics Agent · Architecture (AgentCore-native)">
<title>Analytics Agent · Architecture (AgentCore-native)</title>
<defs>
<pattern id="grid" width="34" height="34" patternUnits="userSpaceOnUse"><path d="M34 0 H0 V34" fill="none" stroke="#EAEFF6" stroke-width="1"/></pattern>
<marker id="ah" viewBox="0 0 10 10" refX="8" refY="5" markerWidth="7" markerHeight="7" orient="auto-start-reverse"><path d="M1 1 L9 5 L1 9" fill="none" stroke="context-stroke" stroke-width="1.7" stroke-linecap="round" stroke-linejoin="round"/></marker>
<style>@media (prefers-reduced-motion: no-preference){.flow{stroke-dasharray:6 6;animation:dm .8s linear infinite}}@keyframes dm{to{stroke-dashoffset:-12}}</style>
</defs>
<rect width="1480" height="900" fill="#FBFCFE"/><rect width="1480" height="900" fill="url(#grid)"/>
<text x="40" y="46" font-size="21" font-weight="800" fill="#16202E">Analytics Agent · Architecture (AgentCore-native)</text>
<text x="40" y="68" font-size="12" fill="#5A6B7B">AgentCore Runtime hosts the Claude Agent SDK · knowledge loaded from S3 at cold start · Aurora Serverless v2 (PostgreSQL) over a private VPC connection · /ask rides CloudFront VPC origin → internal ALB → Fargate relay</text>
<rect x="280" y="90" width="1140" height="706" rx="12" fill="rgba(0,164,166,0.045)" stroke="#00A4A6" stroke-width="1.5" stroke-dasharray="9 5"/>
<text x="296" y="108" font-size="11" font-weight="700" fill="#0B7E7F">AWS Cloud · Region us-west-2</text>
<rect x="560" y="350" width="620" height="410" rx="12" fill="rgba(140,79,255,0.06)" stroke="#8C4FFF" stroke-width="1.5" stroke-dasharray="6 4"/>
<text x="576" y="368" font-size="11" font-weight="700" fill="#7C3AED">VPC · private subnets</text>
<path class="flow" d="M 133.0 408.0 L 347.0 408.0" fill="none" stroke="#1D4ED8" stroke-width="2" marker-end="url(#ah)"/>
<path class="flow" d="M 393.0 408.0 L 617.0 408.0" fill="none" stroke="#1D4ED8" stroke-width="2" marker-end="url(#ah)"/>
<path class="flow" d="M 663.0 408.0 L 847.0 408.0" fill="none" stroke="#1D4ED8" stroke-width="2" marker-end="url(#ah)"/>
<path class="flow" d="M 893.0 408.0 L 1077.0 408.0" fill="none" stroke="#1D4ED8" stroke-width="2" marker-end="url(#ah)"/>
<path class="flow" d="M 1123.0 408.0 L 1307.0 408.0" fill="none" stroke="#1D4ED8" stroke-width="2" marker-end="url(#ah)"/>
<path class="flow" d="M 1100.0 191.0 L 1100.0 385.0" fill="none" stroke="#15803D" stroke-width="2" marker-end="url(#ah)"/>
<path class="flow" d="M 1100.0 431.0 L 1100.0 637.0" fill="none" stroke="#0369A1" stroke-width="2" marker-end="url(#ah)"/>
<path class="flow" d="M 110.0 431.0 L 110.0 660.0 L 347.0 660.0" fill="none" stroke="#94A3B8" stroke-width="2" marker-end="url(#ah)"/>
<path d="M 870.0 431.0 L 870.0 560.0 L 370.0 560.0 L 370.0 637.0" fill="none" stroke="#94A3B8" stroke-width="1.4" stroke-dasharray="2 5" opacity="0.7"/>
<rect x="177" y="385" width="127" height="14" rx="3" fill="#FBFCFE" opacity="0.92"/>
<text x="240" y="395" text-anchor="middle" font-size="9.5" fill="#48586a">HTTPS · X-Id-Token</text>
<rect x="432" y="385" width="147" height="14" rx="3" fill="#FBFCFE" opacity="0.92"/>
<text x="505" y="395" text-anchor="middle" font-size="9.5" fill="#48586a">VPC origin · unsigned</text>
<rect x="738" y="385" width="34" height="14" rx="3" fill="#FBFCFE" opacity="0.92"/>
<text x="755" y="395" text-anchor="middle" font-size="9.5" fill="#48586a">/ask</text>
<rect x="922" y="385" width="127" height="14" rx="3" fill="#FBFCFE" opacity="0.92"/>
<text x="985" y="395" text-anchor="middle" font-size="9.5" fill="#48586a">InvokeAgentRuntime</text>
<rect x="1175" y="385" width="81" height="14" rx="3" fill="#FBFCFE" opacity="0.92"/>
<text x="1215" y="395" text-anchor="middle" font-size="9.5" fill="#48586a">InvokeModel</text>
<rect x="1137" y="285" width="186" height="14" rx="3" fill="#FBFCFE" opacity="0.92"/>
<text x="1230" y="295" text-anchor="middle" font-size="9.5" fill="#48586a">load knowledge @ cold start</text>
<rect x="1141" y="535" width="153" height="14" rx="3" fill="#FBFCFE" opacity="0.92"/>
<text x="1218" y="545" text-anchor="middle" font-size="9.5" fill="#48586a">run_sql · psycopg 5432</text>
<rect x="136" y="635" width="107" height="14" rx="3" fill="#FBFCFE" opacity="0.92"/>
<text x="190" y="645" text-anchor="middle" font-size="9.5" fill="#48586a">SRP login → JWT</text>
<rect x="575" y="538" width="81" height="14" rx="3" fill="#FBFCFE" opacity="0.92"/>
<text x="615" y="548" text-anchor="middle" font-size="9.5" fill="#48586a">JWKS verify</text>
<circle r="4" fill="#1D4ED8"><animateMotion dur="2.8s" begin="0.00s" repeatCount="indefinite" path="M 133.0 408.0 L 347.0 408.0"/></circle>
<circle r="4" fill="#1D4ED8"><animateMotion dur="2.8s" begin="0.56s" repeatCount="indefinite" path="M 393.0 408.0 L 617.0 408.0"/></circle>
<circle r="4" fill="#1D4ED8"><animateMotion dur="2.8s" begin="1.12s" repeatCount="indefinite" path="M 663.0 408.0 L 847.0 408.0"/></circle>
<circle r="4" fill="#1D4ED8"><animateMotion dur="2.8s" begin="1.68s" repeatCount="indefinite" path="M 893.0 408.0 L 1077.0 408.0"/></circle>
<circle r="4" fill="#1D4ED8"><animateMotion dur="2.8s" begin="2.24s" repeatCount="indefinite" path="M 1123.0 408.0 L 1307.0 408.0"/></circle>
<circle r="3.4" fill="#0F766E"><animateMotion dur="3.2s" begin="0.00s" repeatCount="indefinite" keyPoints="1;0" keyTimes="0;1" calcMode="linear" path="M 1123.0 408.0 L 1307.0 408.0"/></circle>
<circle r="3.4" fill="#0F766E"><animateMotion dur="3.2s" begin="0.64s" repeatCount="indefinite" keyPoints="1;0" keyTimes="0;1" calcMode="linear" path="M 893.0 408.0 L 1077.0 408.0"/></circle>
<circle r="3.4" fill="#0F766E"><animateMotion dur="3.2s" begin="1.28s" repeatCount="indefinite" keyPoints="1;0" keyTimes="0;1" calcMode="linear" path="M 663.0 408.0 L 847.0 408.0"/></circle>
<circle r="3.4" fill="#0F766E"><animateMotion dur="3.2s" begin="1.92s" repeatCount="indefinite" keyPoints="1;0" keyTimes="0;1" calcMode="linear" path="M 393.0 408.0 L 617.0 408.0"/></circle>
<circle r="3.4" fill="#0F766E"><animateMotion dur="3.2s" begin="2.56s" repeatCount="indefinite" keyPoints="1;0" keyTimes="0;1" calcMode="linear" path="M 133.0 408.0 L 347.0 408.0"/></circle>
<circle r="4" fill="#15803D"><animateMotion dur="2.2s" begin="0.00s" repeatCount="indefinite" path="M 1100.0 191.0 L 1100.0 385.0"/></circle>
<circle r="4" fill="#0369A1"><animateMotion dur="2.2s" begin="0.00s" repeatCount="indefinite" path="M 1100.0 431.0 L 1100.0 637.0"/></circle>
<rect x="87.0" y="385.0" width="46" height="46" rx="8" fill="#64748B"/><circle cx="110" cy="408" r="7" fill="none" stroke="#fff" stroke-width="2.4"/><circle cx="110" cy="408" r="1.8" fill="#fff"/><text x="110" y="446" text-anchor="middle" font-size="13" font-weight="700" fill="#16202E">User · Browser</text><text x="110" y="459" text-anchor="middle" font-size="9.5" fill="#5A6B7B">plain-language question</text>
<g transform="translate(347.00,385.00) scale(0.7188)">

    
    <g id="cloudfront__Icon-Architecture/48/Arch_Amazon-CloudFront_48" stroke="none" stroke-width="1" fill="none" fill-rule="evenodd">
        <g id="cloudfront__Icon-Architecture-BG/48/Networking-Content-Delivery" fill="#8C4FFF">
            <rect id="cloudfront__Rectangle" x="0" y="0" width="64" height="64"></rect>
        </g>
        <path d="M41.5,43.5 C40.397,43.5 39.5,42.603 39.5,41.5 C39.5,40.397 40.397,39.5 41.5,39.5 C42.603,39.5 43.5,40.397 43.5,41.5 C43.5,42.603 42.603,43.5 41.5,43.5 L41.5,43.5 Z M41.5,37.5 C39.294,37.5 37.5,39.294 37.5,41.5 C37.5,43.706 39.294,45.5 41.5,45.5 C43.706,45.5 45.5,43.706 45.5,41.5 C45.5,39.294 43.706,37.5 41.5,37.5 L41.5,37.5 Z M22.5,32.5 C21.397,32.5 20.5,31.603 20.5,30.5 C20.5,29.397 21.397,28.5 22.5,28.5 C23.603,28.5 24.5,29.397 24.5,30.5 C24.5,31.603 23.603,32.5 22.5,32.5 L22.5,32.5 Z M22.5,26.5 C20.294,26.5 18.5,28.294 18.5,30.5 C18.5,32.706 20.294,34.5 22.5,34.5 C24.706,34.5 26.5,32.706 26.5,30.5 C26.5,28.294 24.706,26.5 22.5,26.5 L22.5,26.5 Z M45.389,47.124 C45.168,46.607 44.936,46.094 44.685,45.591 L42.896,46.486 C43.17,47.035 43.42,47.599 43.656,48.165 C42.82,48.762 41.943,49.288 41.028,49.74 C41.384,48.865 41.694,47.975 41.974,47.012 L40.054,46.454 C39.564,48.134 38.985,49.581 38.184,51.133 C36.357,51.698 34.452,52 32.5,52 C29.465,52 26.567,51.314 23.871,49.976 C22.503,46.615 21.838,43.534 21.838,40.559 C21.838,39.267 22.063,38.196 22.322,36.956 C22.386,36.652 22.45,36.343 22.514,36.024 L20.551,35.638 C20.49,35.949 20.427,36.25 20.365,36.545 C20.094,37.838 19.838,39.06 19.838,40.559 C19.838,43.074 20.274,45.644 21.154,48.354 C16.072,44.724 13,38.854 13,32.5 C13,32.389 13.01,32.273 13.012,32.161 C14.642,31.799 16.123,31.614 17.854,31.571 L17.804,29.572 C16.169,29.612 14.694,29.779 13.163,30.084 C14.081,22.683 19.212,16.394 26.323,14.019 C27.873,14.818 29.02,15.524 30.135,16.37 L31.344,14.776 C30.646,14.248 29.934,13.771 29.146,13.299 C30.244,13.108 31.363,13 32.5,13 C35.032,13 37.532,13.494 39.849,14.439 C39.342,14.593 38.82,14.763 38.243,14.971 L38.923,16.852 C40.316,16.349 41.408,16.04 42.571,15.821 C48.399,19.341 52,25.667 52,32.5 C52,38.156 49.605,43.416 45.389,47.124 L45.389,47.124 Z M43.008,13.749 C39.826,11.95 36.192,11 32.5,11 C30.392,11 28.324,11.301 26.357,11.895 C17.723,14.464 11.568,22.23 11.045,31.196 C11.01,31.625 11,32.062 11,32.5 C11,40.444 15.352,47.707 22.354,51.455 C25.459,53.12 28.968,54 32.5,54 C34.892,54 37.229,53.61 39.437,52.843 C41.684,52.086 43.773,50.963 45.646,49.507 C50.955,45.399 54,39.2 54,32.5 C54,24.732 49.787,17.546 43.008,13.749 L43.008,13.749 Z M38.384,37.411 L37.003,38.858 C34.022,36.015 31.047,34.146 27.637,32.975 L28.287,31.083 C31.979,32.351 35.188,34.362 38.384,37.411 L38.384,37.411 Z M38.444,22.364 C41.282,26.692 42.88,31.444 43.193,36.488 L41.197,36.612 C40.905,31.919 39.417,27.495 36.772,23.46 L38.444,22.364 Z M26.451,26.797 L24.773,25.708 C26.316,23.332 27.639,21.758 29.336,20.278 L30.65,21.786 C29.103,23.135 27.886,24.587 26.451,26.797 L26.451,26.797 Z M34.5,16.5 C35.603,16.5 36.5,17.397 36.5,18.5 C36.5,19.603 35.603,20.5 34.5,20.5 C33.397,20.5 32.5,19.603 32.5,18.5 C32.5,17.397 33.397,16.5 34.5,16.5 L34.5,16.5 Z M34.5,22.5 C36.706,22.5 38.5,20.706 38.5,18.5 C38.5,16.294 36.706,14.5 34.5,14.5 C32.294,14.5 30.5,16.294 30.5,18.5 C30.5,20.706 32.294,22.5 34.5,22.5 L34.5,22.5 Z" id="cloudfront__Amazon-CloudFront_Icon_48_Squid" fill="#FFFFFF"></path>
    </g>
</g><text x="370" y="446" text-anchor="middle" font-size="13" font-weight="700" fill="#16202E">CloudFront</text><text x="370" y="459" text-anchor="middle" font-size="9.5" fill="#5A6B7B">static UI (S3) + /ask</text>
<g transform="translate(617.00,385.00) scale(0.5750)">

    
    
    
    <defs>
        <linearGradient x1="0%" y1="100%" x2="100%" y2="0%" id="elb__linearGradient-1">
            <stop stop-color="#4D27A8" offset="0%"></stop>
            <stop stop-color="#A166FF" offset="100%"></stop>
        </linearGradient>
    </defs>
    <g id="elb__Icon-Architecture/64/Arch_Elastic-Load-Balancing_64" stroke="none" stroke-width="1" fill="none" fill-rule="evenodd">
        <g id="elb__Icon-Architecture-BG/64/Networking-Content-Delivery" fill="#8C4FFF">
            <rect id="elb__Rectangle" x="0" y="0" width="80" height="80"></rect>
        </g>
        <path d="M30,53 C22.832,53 17,47.168 17,40 C17,32.832 22.832,27 30,27 C37.168,27 43,32.832 43,40 C43,47.168 37.168,53 30,53 M60,59 C60,61.206 58.206,63 56,63 C53.794,63 52,61.206 52,59 C52,56.794 53.794,55 56,55 C58.206,55 60,56.794 60,59 M56,17 C58.206,17 60,18.794 60,21 C60,23.206 58.206,25 56,25 C53.794,25 52,23.206 52,21 C52,18.794 53.794,17 56,17 M59,36 C61.206,36 63,37.794 63,40 C63,42.206 61.206,44 59,44 C56.794,44 55,42.206 55,40 C55,37.794 56.794,36 59,36 M44.949,41 L53.09,41 C53.568,43.833 56.033,46 59,46 C62.309,46 65,43.309 65,40 C65,36.691 62.309,34 59,34 C56.033,34 53.568,36.167 53.09,39 L44.949,39 C44.823,37.099 44.344,35.297 43.572,33.654 L52.446,25.823 C53.442,26.559 54.669,27 56,27 C59.309,27 62,24.309 62,21 C62,17.691 59.309,15 56,15 C52.691,15 50,17.691 50,21 C50,22.256 50.389,23.421 51.051,24.386 L42.581,31.859 C39.904,27.738 35.271,25 30,25 C21.729,25 15,31.729 15,40 C15,48.271 21.729,55 30,55 C35.271,55 39.904,52.262 42.581,48.141 L51.051,55.614 C50.389,56.579 50,57.744 50,59 C50,62.309 52.691,65 56,65 C59.309,65 62,62.309 62,59 C62,55.691 59.309,53 56,53 C54.669,53 53.442,53.441 52.446,54.177 L43.572,46.346 C44.344,44.703 44.823,42.901 44.949,41" id="elb__Elastic-Load-Balancing_Icon_64_Squid" fill="#FFFFFF"></path>
    </g>
</g><text x="640" y="446" text-anchor="middle" font-size="13" font-weight="700" fill="#16202E">Internal ALB</text><text x="640" y="459" text-anchor="middle" font-size="9.5" fill="#5A6B7B">CloudFront prefix-list only</text>
<g transform="translate(847.00,385.00) scale(0.5750)">

    
    
    
    <defs>
        <linearGradient x1="0%" y1="100%" x2="100%" y2="0%" id="ecs__linearGradient-1">
            <stop stop-color="#C8511B" offset="0%"></stop>
            <stop stop-color="#FF9900" offset="100%"></stop>
        </linearGradient>
    </defs>
    <g id="ecs__Icon-Architecture/64/Arch_Amazon-Elastic-Container-Service_64" stroke="none" stroke-width="1" fill="none" fill-rule="evenodd">
        <g id="ecs__Icon-Architecture-BG/64/Containers" fill="#ED7100">
            <rect id="ecs__Rectangle" x="0" y="0" width="80" height="80"></rect>
        </g>
        <path d="M64,48.2340095 L56,43.4330117 L56,32.0000169 C56,31.6440171 55.812,31.3150172 55.504,31.1360173 L44,24.4260204 L44,14.7520248 L64,26.5710194 L64,48.2340095 Z M65.509,25.13902 L43.509,12.139026 C43.199,11.9560261 42.818,11.9540261 42.504,12.131026 C42.193,12.3090259 42,12.6410257 42,13.0000256 L42,25.0000201 C42,25.3550199 42.189,25.6840198 42.496,25.8640197 L54,32.5740166 L54,44.0000114 C54,44.3510113 54.185,44.6770111 54.486,44.857011 L64.486,50.8570083 C64.644,50.9520082 64.822,51 65,51 C65.17,51 65.34,50.9570082 65.493,50.8700083 C65.807,50.6930084 66,50.3600085 66,50 L66,26.0000196 C66,25.6460198 65.814,25.31902 65.509,25.13902 L65.509,25.13902 Z M40.445,66.863001 L17,54.3990067 L17,26.5710194 L37,14.7520248 L37,24.4510204 L26.463,31.1560173 C26.175,31.3400172 26,31.6580171 26,32.0000169 L26,49.0000091 C26,49.373009 26.208,49.7150088 26.538,49.8870087 L39.991,56.8870055 C40.28,57.0370055 40.624,57.0380055 40.912,56.8880055 L53.964,50.1440086 L61.996,54.9640064 L40.445,66.863001 Z M64.515,54.1420068 L54.515,48.1420095 C54.217,47.9640096 53.849,47.9520096 53.541,48.1120095 L40.455,54.8730065 L28,48.3930094 L28,32.5490167 L38.537,25.8440197 C38.825,25.6600198 39,25.3420199 39,25.0000201 L39,13.0000256 C39,12.6410257 38.808,12.3090259 38.496,12.131026 C38.184,11.9540261 37.802,11.9560261 37.491,12.139026 L15.491,25.13902 C15.187,25.31902 15,25.6460198 15,26.0000196 L15,55 C15,55.3690062 15.204,55.7090061 15.53,55.883006 L39.984,68.8830001 C40.131,68.961 40.292,69 40.453,69 C40.62,69 40.786,68.958 40.937,68.8750001 L64.484,55.875006 C64.797,55.7020061 64.993,55.3750062 65.0001416,55.0180064 C65.006,54.6600066 64.821,54.3260067 64.515,54.1420068 L64.515,54.1420068 Z" id="ecs__Amazon-Elastic-Container-Service_Icon_64_Squid" fill="#FFFFFF"></path>
    </g>
</g><text x="870" y="446" text-anchor="middle" font-size="13" font-weight="700" fill="#16202E">Fargate · ask relay</text><text x="870" y="459" text-anchor="middle" font-size="9.5" fill="#5A6B7B">verify JWT · SSE relay</text>
<g transform="translate(1077.00,385.00) scale(0.7188)">
<g clip-path="url(#agentcore__clip0_211_72)">
<rect width="64" height="64" fill="#01A88D"/>
<path d="M53.3721 21.0727L50.8965 20.0801L49.9326 17.6343C49.7812 17.2519 49.4131 17.001 49.0019 17.001C48.5908 17.0015 48.2217 17.2529 48.0713 17.6357L47.0976 20.1157L44.6377 21.0703C44.2529 21.2197 43.999 21.5913 44 22.0049C44.0009 22.4184 44.2568 22.7891 44.6426 22.9365L47.1553 23.897L48.0625 26.3481C48.2051 26.7353 48.5723 26.9946 48.9853 27.001H49C49.4072 27.001 49.7744 26.7539 49.9277 26.375L50.9385 23.8686L53.3603 22.9341C53.7432 22.7856 53.9971 22.4184 54 22.0073C54.0029 21.5967 53.7539 21.2256 53.3721 21.0727ZM49.8135 22.1592C49.5557 22.2593 49.3496 22.4614 49.2461 22.7183L49.04 23.2285L48.873 22.7773C48.7734 22.5073 48.5615 22.2934 48.293 22.1904L47.7822 21.9951L48.2305 21.8213C48.4902 21.7202 48.6973 21.5146 48.7988 21.2544L49.0039 20.7319L49.1592 21.1265C49.25 21.437 49.4883 21.6855 49.793 21.792L50.2695 21.9834L49.8135 22.1592ZM51.2148 30.853L44.0078 27.9629L41.1973 20.8379C41.0078 20.3569 40.5508 20.0459 40.0342 20.0459C39.5166 20.0464 39.0586 20.3574 38.8701 20.8394L36.0312 28.0747L33.0011 29.2507L33.0019 13.998C33.0019 13.6191 32.788 13.2729 32.4492 13.1035L26.4472 10.1055C26.1513 9.95849 25.8027 9.96581 25.5146 10.126L16.5146 15.126C16.1972 15.3022 16 15.6367 16 16V23.3818L10.5527 26.1055C10.2138 26.2749 9.99997 26.6211 9.99997 27V37C9.99997 37.3511 10.1845 37.6768 10.4853 37.8574L15 40.5664V47C15 47.3657 15.2002 47.7026 15.5214 47.8779L26.5215 53.8779C26.6709 53.9594 26.8349 54 27 54C27.1787 54 27.3564 53.9521 27.5146 53.8574L32.5146 50.8574C32.8154 50.6767 33 50.351 33 50L33.0008 34.7649L36.2138 35.9927L38.8662 43.1616C39.0459 43.6494 39.499 43.9697 40.0185 43.9775C40.0253 43.9775 40.0322 43.978 40.039 43.978C40.5507 43.978 41.0039 43.6733 41.1982 43.1953L44.1396 35.9053L51.1992 33.1797C51.6816 32.9941 51.9961 32.5395 52 32.022C52.0029 31.5044 51.6953 31.0454 51.2148 30.853ZM26.9766 51.8481L23.7745 50.1015L27.5146 47.8574L26.4853 46.1426L21.7383 48.9908L17 46.4062V40.5662L21.5146 37.8574L20.4853 36.1426L16 38.8338L12 36.4336V32.6182L17.4472 29.8945L16.5527 28.1055L12 30.3818V27.6182L16.9563 25.14L21 27.5662V30.3818L17.5527 32.1055L18.4472 33.8945L22.0026 32.1169L25.5566 33.877L26.4433 32.085L23 30.3797V27.5664L27.5146 24.8574C27.8154 24.6768 28 24.3511 28 24V19H26V23.4336L22 25.8338L18 23.4338V16.5884L21 14.9217V21H23V13.8106L26.0244 12.1304L31.0019 14.6162L31.0007 36.4504L20.4629 43.1563L21.5371 44.8438L31.0006 38.8215L31 49.4336L26.9766 51.8481ZM43.0146 34.1953C42.7568 34.2954 42.5508 34.4976 42.4473 34.7544L40.0683 40.6494L37.9316 34.8735C37.832 34.6035 37.6201 34.3896 37.3516 34.2866L33.0009 32.6238L33.001 31.3955L37.1631 29.7803C37.4238 29.6792 37.6308 29.4736 37.7324 29.2134L40.0361 23.3438L42.2431 28.9385C42.3183 29.2905 42.5849 29.5747 42.9258 29.6841L48.7021 32L43.0146 34.1953Z" fill="white"/>
</g>
<defs>
<clipPath id="agentcore__clip0_211_72">
<rect width="64" height="64" fill="white"/>
</clipPath>
</defs>
</g><text x="1100" y="446" text-anchor="middle" font-size="13" font-weight="700" fill="#16202E">AgentCore Runtime</text><text x="1100" y="459" text-anchor="middle" font-size="9.5" fill="#5A6B7B">Claude Agent SDK</text>
<g transform="translate(1307.00,385.00) scale(0.7188)">

    
    <g id="bedrock__Icon-Architecture/48/Arch_Amazon-Bedrock_48" stroke="none" stroke-width="1" fill="none" fill-rule="evenodd">
        <g id="bedrock__Icon-Architecture-BG/48/Machine-Learning" fill="#01A88D">
            <rect id="bedrock__Rectangle" x="0" y="0" width="64" height="64"></rect>
        </g>
        <g id="bedrock__Icon-Service/48/Amazon-Bedrock_48" transform="translate(10.000000, 10.000000)" fill="#FFFFFF">
            <path d="M41,20.9998818 C40.448,20.9998818 40,20.5508818 40,19.9998818 C40,19.4488818 40.448,18.9998818 41,18.9998818 C41.552,18.9998818 42,19.4488818 42,19.9998818 C42,20.5508818 41.552,20.9998818 41,20.9998818 L41,20.9998818 Z M16.977,41.8478818 L13.774,40.1018818 L17.515,37.8568818 L16.485,36.1428818 L11.738,38.9908818 L7,36.4058818 L7,30.5658818 L11.515,27.8568818 L10.485,26.1428818 L6,28.8338818 L2,26.4338818 L2,22.6178818 L7.447,19.8948818 L6.553,18.1048818 L2,20.3818818 L2,17.6178818 L6.956,15.1398818 L11,17.5658818 L11,20.3818818 L7.553,22.1048818 L8.447,23.8948818 L12.003,22.1168818 L15.557,23.8768818 L16.443,22.0848818 L13,20.3798818 L13,17.5658818 L17.515,14.8568818 C17.815,14.6768818 18,14.3508818 18,13.9998818 L18,8.99988178 L16,8.99988178 L16,13.4338818 L12,15.8338818 L8,13.4338818 L8,6.58788178 L11,4.92188178 L11,10.9998818 L13,10.9998818 L13,3.81088178 L16.024,2.12988178 L21.002,4.61588178 L21.001,26.4498818 L10.463,33.1558818 L11.537,34.8438818 L21.001,28.8218818 L21,39.4338818 L16.977,41.8478818 Z M38,28.9998818 C38.552,28.9998818 39,29.4488818 39,29.9998818 C39,30.5508818 38.552,30.9998818 38,30.9998818 C37.448,30.9998818 37,30.5508818 37,29.9998818 C37,29.4488818 37.448,28.9998818 38,28.9998818 L38,28.9998818 Z M30,38.9998818 C29.448,38.9998818 29,38.5508818 29,37.9998818 C29,37.4488818 29.448,36.9998818 30,36.9998818 C30.552,36.9998818 31,37.4488818 31,37.9998818 C31,38.5508818 30.552,38.9998818 30,38.9998818 L30,38.9998818 Z M32,5.99988178 C32.552,5.99988178 33,6.44888178 33,6.99988178 C33,7.55088178 32.552,7.99988178 32,7.99988178 C31.448,7.99988178 31,7.55088178 31,6.99988178 C31,6.44888178 31.448,5.99988178 32,5.99988178 L32,5.99988178 Z M41,16.9998818 C39.698,16.9998818 38.598,17.8388818 38.184,18.9998818 L23.001,18.9998818 L23.001,14.9998818 L32,14.9998818 C32.553,14.9998818 33,14.5518818 33,13.9998818 L33,9.81588178 C34.161,9.40188178 35,8.30188178 35,6.99988178 C35,5.34588178 33.654,3.99988178 32,3.99988178 C30.346,3.99988178 29,5.34588178 29,6.99988178 C29,8.30188178 29.839,9.40188178 31,9.81588178 L31,12.9998818 L23.001,12.9998818 L23.002,3.99788178 C23.002,3.61888178 22.788,3.27288178 22.449,3.10388178 L16.447,0.104881781 C16.151,-0.0421182195 15.803,-0.0341182195 15.515,0.125881781 L6.515,5.12588178 C6.197,5.30188178 6,5.63688178 6,5.99988178 L6,13.3818818 L0.553,16.1048818 C0.214,16.2748818 0,16.6208818 0,16.9998818 L0,26.9998818 C0,27.3508818 0.185,27.6768818 0.485,27.8568818 L5,30.5658818 L5,36.9998818 C5,37.3658818 5.2,37.7028818 5.521,37.8778818 L16.521,43.8778818 C16.671,43.9588818 16.835,43.9998818 17,43.9998818 C17.179,43.9998818 17.356,43.9518818 17.515,43.8568818 L22.515,40.8568818 C22.815,40.6768818 23,40.3508818 23,39.9998818 L23,32.9998818 L29,32.9998818 L29,35.1838818 C27.839,35.5978818 27,36.6978818 27,37.9998818 C27,39.6538818 28.346,40.9998818 30,40.9998818 C31.654,40.9998818 33,39.6538818 33,37.9998818 C33,36.6978818 32.161,35.5978818 31,35.1838818 L31,31.9998818 C31,31.4478818 30.553,30.9998818 30,30.9998818 L23,30.9998818 L23.001,26.9998818 L33.586,26.9998818 L35.301,28.7148818 C35.113,29.1058818 35,29.5378818 35,29.9998818 C35,31.6538818 36.346,32.9998818 38,32.9998818 C39.654,32.9998818 41,31.6538818 41,29.9998818 C41,28.3458818 39.654,26.9998818 38,26.9998818 C37.538,26.9998818 37.106,27.1128818 36.715,27.3008818 L34.707,25.2928818 C34.52,25.1048818 34.266,24.9998818 34,24.9998818 L23.001,24.9998818 L23.001,20.9998818 L38.184,20.9998818 C38.598,22.1608818 39.698,22.9998818 41,22.9998818 C42.654,22.9998818 44,21.6538818 44,19.9998818 C44,18.3458818 42.654,16.9998818 41,16.9998818 L41,16.9998818 Z" id="bedrock__Fill-3"></path>
        </g>
    </g>
</g><text x="1330" y="446" text-anchor="middle" font-size="13" font-weight="700" fill="#16202E">Amazon Bedrock</text><text x="1330" y="459" text-anchor="middle" font-size="9.5" fill="#5A6B7B">Opus 4.8 · cross-region</text>
<g transform="translate(1077.00,145.00) scale(0.7188)">

    
    <g id="s3__Icon-Architecture/48/Arch_Amazon-Simple-Storage-Service_48" stroke="none" stroke-width="1" fill="none" fill-rule="evenodd">
        <g id="s3__Icon-Architecture-BG/48/Storage" fill="#7AA116">
            <rect id="s3__Rectangle" x="0" y="0" width="64" height="64"></rect>
        </g>
        <g id="s3__Icon-Service/48/Amazon-Simple-Storage-Service_48" transform="translate(10.999800, 10.000200)" fill="#FFFFFF">
            <path d="M36.759,23.948 L36.993,22.131 C39.166,23.385 39.842,24.121 40.037,24.424 C39.713,24.485 38.832,24.509 36.759,23.948 L36.759,23.948 Z M19.5,11 C9.125,11 2.382,8.488 2,6.696 L2,6.511 C2.349,5.392 8.14,2 19.5,2 C30.84,2 36.632,5.381 37,6.505 L37,6.616 C36.724,8.446 29.961,11 19.5,11 L19.5,11 Z M34.818,23.362 C30.053,21.797 23.912,18.979 21.594,17.888 C21.535,16.786 20.628,15.906 19.512,15.906 C18.358,15.906 17.418,16.845 17.418,18 C17.418,19.154 18.358,20.094 19.512,20.094 C19.969,20.094 20.389,19.942 20.733,19.693 C23.132,20.822 29.619,23.798 34.558,25.38 L32.837,38.724 C32.583,40.352 27.919,42 19.497,42 C11.072,42 6.405,40.352 6.155,38.751 L2.435,9.814 C5.945,11.915 12.749,13 19.5,13 C26.25,13 33.054,11.915 36.565,9.815 L34.818,23.362 Z M39,6.5 C39,3.431 30.661,0 19.5,0 C8.339,0 -3.55271368e-15,3.431 -3.55271368e-15,6.5 L-3.55271368e-15,7.043 L4.174,39.033 C4.875,43.516 15.123,44 19.497,44 C23.869,44 34.113,43.516 34.818,39.007 L36.501,25.947 C37.778,26.279 38.812,26.456 39.616,26.455 C40.606,26.455 41.273,26.203 41.697,25.697 C42.047,25.281 42.185,24.756 42.085,24.221 C41.857,23 40.403,21.712 37.37,20.044 L37.27,19.989 L39,7.044 L39,6.5 Z" id="s3__Amazon-Simple-Storage-Service-Icon_48_Squid"></path>
        </g>
    </g>
</g><text x="1100" y="206" text-anchor="middle" font-size="13" font-weight="700" fill="#16202E">S3 · Knowledge</text><text x="1100" y="219" text-anchor="middle" font-size="9.5" fill="#5A6B7B">md doc tree · 8 domains</text>
<g transform="translate(347.00,637.00) scale(0.5750)">

    
    
    
    <defs>
        <linearGradient x1="0%" y1="100%" x2="100%" y2="0%" id="cognito__linearGradient-1">
            <stop stop-color="#BD0816" offset="0%"></stop>
            <stop stop-color="#FF5252" offset="100%"></stop>
        </linearGradient>
    </defs>
    <g id="cognito__Icon-Architecture/64/Arch_Amazon-Cognito_64" stroke="none" stroke-width="1" fill="none" fill-rule="evenodd">
        <g id="cognito__Icon-Architecture-BG/64/Security-Identity-Compliance" fill="#DD344C">
            <rect id="cognito__Rectangle" x="0" y="0" width="80" height="80"></rect>
        </g>
        <path d="M16.9635609,35.8079225 L29.8688192,35.8079225 L29.8688192,33.8253841 L16.9635609,33.8253841 L16.9635609,35.8079225 Z M61.3755183,50.2308895 L62.7792133,51.6325441 L55.4073327,58.9937093 C55.2127611,59.1870067 54.9586268,59.2841511 54.7054852,59.2841511 C54.4513509,59.2841511 54.1972166,59.1870067 54.0036377,58.9937093 L50.294865,55.2913188 L51.69856,53.8896641 L54.7054852,56.8912273 L61.3755183,50.2308895 Z M65.9439798,55.6937741 C65.7176414,57.5573602 64.9592093,59.29109 63.7471077,60.708605 C62.8864262,61.7157345 61.7994064,62.5484006 60.604181,63.1154066 C59.0009508,63.8757101 57.2200251,64.1641694 55.4460485,63.9480727 C53.7207147,63.7379237 52.0946522,63.057913 50.7396,61.9823859 C48.1367087,59.9155896 46.8223578,56.7108163 47.2224208,53.4088985 C47.6006441,50.2883831 49.4917608,47.5663578 52.2802893,46.127035 C53.6164799,45.4381029 55.0797377,45.0842198 56.5697987,45.0842198 C56.9519928,45.0842198 57.3371652,45.1080102 57.7213448,45.1545999 C60.8344902,45.534256 63.549558,47.4365016 64.9810489,50.2427847 C65.839745,51.9259598 66.1723036,53.8113538 65.9439798,55.6937741 L65.9439798,55.6937741 Z M66.750062,49.3437035 C65.0177793,45.9476152 61.731902,43.6458881 57.9615811,43.1869305 C55.6813213,42.9083838 53.4030468,43.3167868 51.3689796,44.3655496 C47.9957436,46.1062183 45.7085347,49.3982233 45.2508944,53.1709939 C44.7684363,57.1608525 46.3577685,61.0357238 49.5046661,63.5347135 C51.1456193,64.8372412 53.1171457,65.6609859 55.2048194,65.9157421 C55.6674233,65.9722445 56.1300272,66 56.5916383,66 C58.2713073,66 59.9301294,65.6292653 61.455928,64.9056388 C62.9023096,64.2196805 64.2176533,63.212551 65.2570229,61.9952724 C66.7232588,60.2803767 67.6425103,58.1838423 67.9155061,55.9316787 C68.1914801,53.6567158 67.788439,51.3787792 66.750062,49.3437035 L66.750062,49.3437035 Z M26.8906827,41.7555378 L30.8615314,41.7555378 L30.8615314,39.7729994 L26.8906827,39.7729994 L26.8906827,41.7555378 Z M16.9635609,41.7555378 L24.9052583,41.7555378 L24.9052583,39.7729994 L16.9635609,39.7729994 L16.9635609,41.7555378 Z M16.1058576,15.9825384 L60.5078879,15.9825384 C61.6773028,15.9825384 62.6283211,17.1393496 62.6283211,18.5608296 L62.6283211,25.8952305 L59.6501845,25.8952305 L59.6501845,20.9388844 C59.6501845,20.3917038 59.2064422,19.9476152 58.6574724,19.9476152 L35.8250923,19.9476152 C35.2761224,19.9476152 34.8323801,20.3917038 34.8323801,20.9388844 L34.8323801,25.8952305 L13.9854244,25.8952305 L13.9854244,18.5608296 C13.9854244,17.16314 14.9572896,15.9825384 16.1058576,15.9825384 L16.1058576,15.9825384 Z M47.256173,25.6077624 C49.5612507,25.6077624 51.436484,27.4614358 51.436484,29.7393725 C51.436484,31.2411453 50.6075693,32.6229746 49.2733642,33.3466011 C48.0066634,34.0335507 46.4798721,34.0246292 45.2300474,33.3475924 C43.9008058,32.6219833 43.075862,31.240154 43.075862,29.7393725 C43.075862,27.4614358 44.9501026,25.6077624 47.256173,25.6077624 L47.256173,25.6077624 Z M13.9854244,47.1083915 L13.9854244,27.8777689 L34.8323801,27.8777689 L34.8323801,44.7293454 C34.8323801,45.2775173 35.2761224,45.7206146 35.8250923,45.7206146 L46.2029054,45.7206146 L46.2029054,43.7380762 L37.9117733,43.7380762 C37.9981392,39.7710168 40.6357755,36.3441992 44.4338923,35.249838 C46.1890074,36.0696176 48.2846228,36.0775478 50.0665412,35.2488467 C52.2286683,35.8733463 54.1207777,37.3176255 55.2931708,39.2535743 L56.9917013,38.2266194 C55.7885342,36.2430897 53.9629365,34.6947272 51.8454814,33.7946548 C52.8381936,32.694346 53.4219083,31.2629532 53.4219083,29.7393725 C53.4219083,26.3680659 50.6552195,23.625224 47.256173,23.625224 C43.8561338,23.625224 41.0904377,26.3680659 41.0904377,29.7393725 C41.0904377,31.2570056 41.6681962,32.683442 42.6539593,33.7837508 C40.0004397,34.8999199 37.9276567,36.9924892 36.8178045,39.572763 L36.8178045,21.9301536 L57.6647602,21.9301536 L57.6647602,37.7904609 L59.6501845,37.7904609 L59.6501845,27.8777689 L62.6283211,27.8777689 L62.6293138,42.746807 L64.6147382,42.746807 L64.6137454,18.5608296 C64.6137454,16.0459796 62.7722643,14 60.5078879,14 L16.1058576,14 C13.8414811,14 12,16.0459796 12,18.5608296 L12,47.1083915 C12,49.6232415 13.8414811,51.6682298 16.1058576,51.6682298 L42.7740775,51.6682298 L42.7740775,49.6856914 L16.1058576,49.6856914 C14.9572896,49.6856914 13.9854244,48.5060811 13.9854244,47.1083915 L13.9854244,47.1083915 Z" id="cognito__Amazon-Cognito_Icon_64_Squid" fill="#FFFFFF"></path>
    </g>
</g><text x="370" y="698" text-anchor="middle" font-size="13" font-weight="700" fill="#16202E">Amazon Cognito</text><text x="370" y="711" text-anchor="middle" font-size="9.5" fill="#5A6B7B">SRP login · JWT/JWKS</text>
<g transform="translate(1077.00,637.00) scale(0.5750)">

    
    
    
    <defs>
        <linearGradient x1="0%" y1="100%" x2="100%" y2="0%" id="rds__linearGradient-1">
            <stop stop-color="#2E27AD" offset="0%"></stop>
            <stop stop-color="#527FFF" offset="100%"></stop>
        </linearGradient>
    </defs>
    <g id="rds__Icon-Architecture/64/Arch_Amazon-RDS_64" stroke="none" stroke-width="1" fill="none" fill-rule="evenodd">
        <g id="rds__Icon-Architecture-BG/64/Database" fill="#C925D1">
            <rect id="rds__Rectangle" x="0" y="0" width="80" height="80"></rect>
        </g>
        <path d="M15.414,14 L24.707,23.293 L23.293,24.707 L14,15.414 L14,23 L12,23 L12,13 C12,12.448 12.447,12 13,12 L23,12 L23,14 L15.414,14 Z M68,13 L68,23 L66,23 L66,15.414 L56.707,24.707 L55.293,23.293 L64.586,14 L57,14 L57,12 L67,12 C67.553,12 68,12.448 68,13 L68,13 Z M66,57 L68,57 L68,67 C68,67.552 67.553,68 67,68 L57,68 L57,66 L64.586,66 L55.293,56.707 L56.707,55.293 L66,64.586 L66,57 Z M65.5,39.213 C65.5,35.894 61.668,32.615 55.25,30.442 L55.891,28.548 C63.268,31.045 67.5,34.932 67.5,39.213 C67.5,43.495 63.268,47.383 55.89,49.879 L55.249,47.984 C61.668,45.812 65.5,42.534 65.5,39.213 L65.5,39.213 Z M14.556,39.213 C14.556,42.393 18.143,45.585 24.152,47.753 L23.473,49.634 C16.535,47.131 12.556,43.333 12.556,39.213 C12.556,35.094 16.535,31.296 23.473,28.792 L24.152,30.673 C18.143,32.842 14.556,36.034 14.556,39.213 L14.556,39.213 Z M24.707,56.707 L15.414,66 L23,66 L23,68 L13,68 C12.447,68 12,67.552 12,67 L12,57 L14,57 L14,64.586 L23.293,55.293 L24.707,56.707 Z M40,31.286 C32.854,31.286 29,29.44 29,28.686 C29,27.931 32.854,26.086 40,26.086 C47.145,26.086 51,27.931 51,28.686 C51,29.44 47.145,31.286 40,31.286 L40,31.286 Z M40.029,39.031 C33.187,39.031 29,37.162 29,36.145 L29,31.284 C31.463,32.643 35.832,33.286 40,33.286 C44.168,33.286 48.537,32.643 51,31.284 L51,36.145 C51,37.163 46.835,39.031 40.029,39.031 L40.029,39.031 Z M40.029,46.667 C33.187,46.667 29,44.798 29,43.781 L29,38.862 C31.431,40.291 35.742,41.031 40.029,41.031 C44.292,41.031 48.578,40.292 51,38.867 L51,43.781 C51,44.799 46.835,46.667 40.029,46.667 L40.029,46.667 Z M40,53.518 C32.883,53.518 29,51.605 29,50.622 L29,46.498 C31.431,47.927 35.742,48.667 40.029,48.667 C44.292,48.667 48.578,47.929 51,46.503 L51,50.622 C51,51.605 47.117,53.518 40,53.518 L40,53.518 Z M40,24.086 C33.739,24.086 27,25.525 27,28.686 L27,50.622 C27,53.836 33.54,55.518 40,55.518 C46.46,55.518 53,53.836 53,50.622 L53,28.686 C53,25.525 46.261,24.086 40,24.086 L40,24.086 Z" id="rds__Amazon-RDS_Icon_64_Squid" fill="#FFFFFF"></path>
    </g>
</g><text x="1100" y="698" text-anchor="middle" font-size="13" font-weight="700" fill="#16202E">Aurora Serverless v2</text><text x="1100" y="711" text-anchor="middle" font-size="9.5" fill="#5A6B7B">PostgreSQL · 35 tables + mart</text>
<circle cx="240" cy="408" r="9" fill="#232F3E"/><text x="240" y="411" text-anchor="middle" font-size="10.5" font-weight="700" fill="#fff">1</text>
<circle cx="505" cy="408" r="9" fill="#232F3E"/><text x="505" y="411" text-anchor="middle" font-size="10.5" font-weight="700" fill="#fff">2</text>
<circle cx="755" cy="408" r="9" fill="#232F3E"/><text x="755" y="411" text-anchor="middle" font-size="10.5" font-weight="700" fill="#fff">3</text>
<circle cx="1215" cy="408" r="9" fill="#232F3E"/><text x="1215" y="411" text-anchor="middle" font-size="10.5" font-weight="700" fill="#fff">4</text>
<text x="40" y="810" font-size="11" font-weight="700" fill="#16202E">Flows</text>
<circle cx="92" cy="806" r="5" fill="#1D4ED8"/><text x="102" y="810" font-size="10.5" fill="#5A6B7B">request →</text>
<circle cx="185" cy="806" r="5" fill="#0F766E"/><text x="195" y="810" font-size="10.5" fill="#5A6B7B">reply ←</text>
<circle cx="264" cy="806" r="5" fill="#15803D"/><text x="274" y="810" font-size="10.5" fill="#5A6B7B">scheduling</text>
<circle cx="364" cy="806" r="5" fill="#0369A1"/><text x="374" y="810" font-size="10.5" fill="#5A6B7B">tools/memory</text>
<circle cx="478" cy="806" r="5" fill="#94A3B8"/><text x="488" y="810" font-size="10.5" fill="#5A6B7B">aux</text>
<text x="40" y="832" font-size="10" fill="#5A6B7B">① Browser (X-Id-Token) → ② CloudFront VPC origin (private, unsigned) → ALB → ③ Fargate relay (JWT · SSE) → ④ AgentCore ⇄ Bedrock · green = S3 knowledge @ cold start · run_sql → Aurora (psycopg 5432) · dashed = in-flight</text>
</svg>